<svg xmlns="http://www.w3.org/2000/svg" viewBox="-4.69 8.00 129.39 174.37">
  <defs>
    <clipPath id="pi-face-stacked">
      <polygon points="60.00,16.00 101.57,40.00 60.00,64.00 18.43,40.00"/>
    </clipPath>
  </defs>
  <polygon points="18.43,40.00 60.00,64.00 60.00,112.00 18.43,88.00" fill="#1c2838" stroke="#6e849c" stroke-width="1.5" stroke-linejoin="round"/>
  <polygon points="101.57,40.00 60.00,64.00 60.00,112.00 101.57,88.00" fill="#3d536b" stroke="#6e849c" stroke-width="1.5" stroke-linejoin="round"/>
  <polygon points="60.00,16.00 101.57,40.00 60.00,64.00 18.43,40.00" fill="#2a3b50" stroke="#6e849c" stroke-width="1.5" stroke-linejoin="round"/>
  <g clip-path="url(#pi-face-stacked)">
    <g transform="matrix(0.08855254 0.05112583 -0.08855254 0.05112583 60.00 0)">
      <path fill="#ebe7e4" fill-rule="evenodd" d="M165.29 165.29 H517.36 V400 H400 V517.36 H282.65 V634.72 H165.29 Z M282.65 282.65 V400 H400 V282.65 Z"/>
      <path fill="#ebe7e4" d="M517.36 400 H634.72 V634.72 H517.36 Z"/>
    </g>
  </g>
<g transform="translate(2.66 163.53)" fill="#ebe7e4">
  <path d="M850.7886966839433 456.1127452775836Q850.7886966839433 644.3195663392544 785.1629640646279 734.2202871963382Q719.5372314453125 824.121008053422 594.6340509951115 824.121008053422Q548.4463476762176 824.121008053422 505.80877443403006 814.7386227995157Q463.17120119184256 805.3562375456095 424.6786654703319 785.9652032889426Q386.18612974882126 766.5741690322757 351.3227737247944 735.233282841742L339.9796943217516 782.8424791842699Q401.0891776531935 836.9501993656158 453.1574816517532 873.5595812350512Q505.2257856503129 910.1689631044865 550.9059739597142 932.3346092812717Q596.5861622691154 954.5002554580569 638.2888782098889 964.185116391629Q679.9915941506624 973.869977325201 719.9254433587193 973.869977325201Q845.321889333427 973.869977325201 932.2008194290102 918.3911484442651Q1019.0797495245934 862.9123195633292 1064.3508304990828 763.0804475732148Q1109.6219114735723 663.2485755831003 1109.6219114735723 528.7269941940904Q1109.6219114735723 354.3389892578125 1040.3934738598764 230.68381303176284Q971.1650362461805 107.02863680571318 852.7675583325326 41.84226029738784Q734.3700804188848 -23.3441162109375 586.10358273983 -23.3441162109375Q531.0990321859717 -23.3441162109375 476.78355722874403 -15.159235063940287Q422.4680822715163 -6.974353916943073 368.48496071621776 10.247495334595442Q314.5018391609192 27.469344586133957 259.90111983567476 55.13493296504021H407.5717878714204V-396.08461493998766L556.999642290175 -437.2432364150882V-470.545654296875H33.67588958144188V-437.2432364150882L163.24950040131807 -397.2736703231931V748.7648282796144Q149.95223655551672 762.1440170705318 131.90184516459703 775.2044317685068Q113.85145377367735 788.2648464664817 88.43365681171417 805.0859738476574Q63.015859849750996 821.9071012288332 27.65081100165844 844.9598194435239V871.5330955833197L375.1394261419773 979.4236817881465H393.6435199454427L407.5717878714204 822.0890514776111V242.92655770480633Q407.5717878714204 186.34684781730175 432.45803086832166 142.43376390635967Q457.34427386522293 98.5206799954176 502.56914556771517 73.84370613843203Q547.7940172702074 49.16673228144646 607.6816628649831 49.16673228144646Q684.5580036118627 49.16673228144646 738.8203215934336 93.44859829172492Q793.0826395750046 137.73046430200338 821.9356681294739 228.18690096586943Q850.7886966839433 318.64333762973547 850.7886966839433 456.1127452775836Z" transform="translate(0.00 0.00) scale(0.023000 -0.023000)"/>
  <path d="M291.6330562457442 1158.779119849205Q223.41684708744287 1158.779119849205 182.50948147848248 1203.4075752049685Q141.6021158695221 1248.036030560732 141.6021158695221 1308.9175908267498Q141.6021158695221 1368.9445481523871 182.50948147848248 1410.9244326204062Q223.41684708744287 1452.9043170884252 291.6330562457442 1452.9043170884252Q360.33230894804 1452.9043170884252 400.1471644602716 1410.9244326204062Q439.9620199725032 1368.9445481523871 439.9620199725032 1308.9175908267498Q439.9620199725032 1248.036030560732 400.1471644602716 1203.4075752049685Q360.33230894804 1158.779119849205 291.6330562457442 1158.779119849205ZM428.3451101705432 977.9373625591397 424.3406748175621 782.7786772325635V72.7146448791027L552.75818721205 33.30241788178682V0H50.4447765275836V33.30241788178682L180.0183873474598 73.27198397368193V753.61528082937Q168.2752277329564 765.7729799076915 147.7450480721891 781.3514292836189Q127.21486841142178 796.9298786595464 100.94570337235928 815.0655856840312Q74.67653833329678 833.2012927085161 44.568329870700836 852.0668342858553V880.415066935122L407.75585616379976 977.9373625591397Z" transform="translate(27.07 0.00) scale(0.023000 -0.023000)"/>
  <path d="M768.6140997633338 707.5993034094572Q768.6140997633338 792.9874421283603 715.71269499138 847.1732854805887Q662.8112902194262 901.3591288328171 571.4624856188893 901.3591288328171Q493.9230318516493 901.3591288328171 438.606029804796 857.6160280294716Q383.2890277579427 813.8729272261262 354.3431093543768 725.4213224463165Q325.3971909508109 636.9697176665068 325.3971909508109 501.9558695554733Q325.3971909508109 372.5083056241274 355.38031816482544 288.94391798228025Q385.36344537883997 205.37953034043312 442.8330126814544 165.29766400903463Q500.30257998406887 125.21579767763615 583.4096336215734 125.21579767763615Q649.0994755923748 125.21579767763615 708.4116863794625 146.5864811576903Q767.7238971665502 167.95716463774443 821.2731775939465 216.95029959082603L826.8196120038629 167.37169965356588Q764.4641456753016 110.11706340312958 715.7718532048166 72.82529615610838Q667.0795607343316 35.53352890908718 626.2365407347679 14.536926466971636Q585.3935207352042 -6.4596759751439095 548.0467674843967 -14.901896093040705Q510.7000142335892 -23.3441162109375 472.2196089401841 -23.3441162109375Q344.7038121521473 -23.3441162109375 253.87295754626393 33.490892220288515Q163.04210294038057 90.32590065151453 114.80303955078125 192.1811784133315Q66.56397616118193 294.0364561751485 66.56397616118193 428.11545830219984Q66.56397616118193 558.7540376111865 107.70082264021039 660.1836313344538Q148.83766911923885 761.6132250577211 221.8669241592288 831.5019579678774Q294.89617919921875 901.3906908780336 391.4440657272935 937.6303341016173Q487.99195225536823 973.869977325201 598.9626642763615 973.869977325201Q655.4145075380802 973.869977325201 710.4368520639837 965.6850961782038Q765.4591965898871 957.5002150312066 820.6861558184028 940.3526817411184Q875.9131150469184 923.2051484510303 930.8500430956483 895.2051484510303L768.6140997633338 867.9897173792124V1240.4131542369723Q755.8709401488304 1252.3472475856543 731.8153201453388 1268.8771026730537Q707.7597001418471 1285.4069577604532 678.1660134010017 1303.420154698193Q648.5723266601562 1321.433351635933 618.0860074311495 1337.8531603366137V1364.4365008026361L1006.3540851548314 1458.454345703125H1023.8967644944787L1012.9363872334361 1276.599832907319V140.14474993944168Q1022.5309149250388 132.51191480457783 1039.5097640193999 122.74910308048129Q1056.488613113761 112.98629135638475 1076.8743722774088 102.7424536831677Q1097.2601314410567 92.49861600995064 1117.480502307415 83.29088851436973Q1137.7008731737733 74.08316101878881 1154.5926647111773 67.89167109876871V38.731774754822254L802.4436148330569 -26.79452171176672H783.4940254241228L768.6140997633338 130.6519250050187Z" transform="translate(40.53 0.00) scale(0.023000 -0.023000)"/>
  <path d="M532.9345024079084 973.869977325201Q644.8570419251919 973.869977325201 725.1335695832968 927.5639278516173Q805.4100972414017 881.2578783780336 851.8795378282666 793.0207737721503Q898.3489784151316 704.7836691662669 908.1278480440378 578.6586081311107H259.58170991390944L260.1733620837331 650.8025221601129L784.7314994782209 662.3613058850169L673.5734685361385 615.861687861383Q666.7646803632379 714.6608753278852 646.8324835523963 777.7735937200487Q626.9002867415547 840.8863121122122 592.5293827690184 871.3994742818177Q558.1584787964821 901.9126364514232 506.5544793382287 901.9126364514232Q444.26583721488714 901.9126364514232 398.3903974406421 865.564521227032Q352.5149576663971 829.2164060026407 327.5507840923965 752.494835857302Q302.5866105183959 675.7732657119632 302.5866105183959 554.3554574325681Q302.5866105183959 416.9639755189419 342.9468683041632 327.4232751764357Q383.30712608993053 237.88257483392954 458.92005022242665 194.242809984833Q534.5329743549228 150.60304513573647 640.4751356616616 150.60304513573647Q688.6253613680601 150.60304513573647 732.6941029168665 162.04310861229897Q776.762844465673 173.48317208886147 818.131586138159 197.73809330165386Q859.5003278106451 221.99301451444626 897.0319800004363 259.99312971532345L921.6767169907689 234.04162073880434Q861.5546535477042 143.4237036332488 799.4670014046133 86.57016779482365Q737.3793492615223 29.716631956398487 668.5671318024397 3.1862578727304935Q599.7549143433571 -23.3441162109375 518.7721375748515 -23.3441162109375Q386.03977228701115 -23.3441162109375 283.73067105561495 35.53029829636216Q181.42156982421875 94.40471280366182 123.60333817824721 202.63013261184096Q65.78510653227568 310.8555524200201 65.78510653227568 458.74066404253244Q65.78510653227568 598.2984372526407 120.27216142043471 715.4325236082077Q174.75921630859375 832.5666099637747 279.2937203720212 903.2182936444879Q383.82822443544865 973.869977325201 532.9345024079084 973.869977325201Z" transform="translate(67.44 0.00) scale(0.023000 -0.023000)"/>
  <path d="M978.5806654468179 77.51979802548885 1096.5305422395468 37.4074323028326V0H587.1843621507287V37.4074323028326L707.3542096465826 71.6951136291027L472.38118071109056 402.0607841461897L456.93408484756947 420.5447092652321L132.20596899092197 869.6728111356497L13.5147705078125 912.9326491132379V950.5258611142635H519.3473918959498V912.9326491132379L401.0244771242142 878.0894257947803L614.7746602296829 574.9811922758818L630.7798955142498 557.2378293424845ZM527.7385969012976 449.1675111576915 226.45476686954498 69.92774569243193 347.4525287821889 37.59321200102568V0H5.494156390428543V37.59321200102568L126.60531514883041 71.11676025390625L494.2835450693965 507.0002582743764L548.9016554132104 524.4552200138569L833.3035949468613 880.5981154218316L710.3860421255231 912.9326491132379V950.5258611142635H1048.565504066646V912.9326491132379L931.7479337006807 879.4091008603573L582.8765392228961 466.622472897172Z" transform="translate(88.80 0.00) scale(0.023000 -0.023000)"/>
</g>
</svg>
