<svg xmlns="http://www.w3.org/2000/svg" viewBox="0 0 180 180">
<circle cx="90" cy="90" r="84" fill="none" stroke="#ebe7e4" stroke-width="1.5"/>
<circle cx="90" cy="90" r="76" fill="none" stroke="#6e849c" stroke-width="0.75"/>
<line x1="90.00" y1="32.00" x2="90.00" y2="18.00" stroke="#6e849c" stroke-width="0.9"/>
<line x1="95.58" y1="26.24" x2="96.28" y2="18.27" stroke="#6e849c" stroke-width="0.9"/>
<line x1="101.11" y1="26.97" x2="102.50" y2="19.09" stroke="#6e849c" stroke-width="0.9"/>
<line x1="106.56" y1="28.18" x2="108.63" y2="20.45" stroke="#6e849c" stroke-width="0.9"/>
<line x1="111.89" y1="29.86" x2="114.63" y2="22.34" stroke="#6e849c" stroke-width="0.9"/>
<line x1="117.05" y1="32.00" x2="120.43" y2="24.75" stroke="#6e849c" stroke-width="0.9"/>
<line x1="119.00" y1="39.77" x2="126.00" y2="27.65" stroke="#6e849c" stroke-width="0.9"/>
<line x1="126.71" y1="37.57" x2="131.30" y2="31.02" stroke="#6e849c" stroke-width="0.9"/>
<line x1="131.14" y1="40.97" x2="136.28" y2="34.84" stroke="#6e849c" stroke-width="0.9"/>
<line x1="135.25" y1="44.75" x2="140.91" y2="39.09" stroke="#6e849c" stroke-width="0.9"/>
<line x1="139.03" y1="48.86" x2="145.16" y2="43.72" stroke="#6e849c" stroke-width="0.9"/>
<line x1="142.43" y1="53.29" x2="148.98" y2="48.70" stroke="#6e849c" stroke-width="0.9"/>
<line x1="140.23" y1="61.00" x2="152.35" y2="54.00" stroke="#6e849c" stroke-width="0.9"/>
<line x1="148.00" y1="62.95" x2="155.25" y2="59.57" stroke="#6e849c" stroke-width="0.9"/>
<line x1="150.14" y1="68.11" x2="157.66" y2="65.37" stroke="#6e849c" stroke-width="0.9"/>
<line x1="151.82" y1="73.44" x2="159.55" y2="71.37" stroke="#6e849c" stroke-width="0.9"/>
<line x1="153.03" y1="78.89" x2="160.91" y2="77.50" stroke="#6e849c" stroke-width="0.9"/>
<line x1="153.76" y1="84.42" x2="161.73" y2="83.72" stroke="#6e849c" stroke-width="0.9"/>
<line x1="148.00" y1="90.00" x2="162.00" y2="90.00" stroke="#6e849c" stroke-width="0.9"/>
<line x1="153.76" y1="95.58" x2="161.73" y2="96.28" stroke="#6e849c" stroke-width="0.9"/>
<line x1="153.03" y1="101.11" x2="160.91" y2="102.50" stroke="#6e849c" stroke-width="0.9"/>
<line x1="151.82" y1="106.56" x2="159.55" y2="108.63" stroke="#6e849c" stroke-width="0.9"/>
<line x1="150.14" y1="111.89" x2="157.66" y2="114.63" stroke="#6e849c" stroke-width="0.9"/>
<line x1="148.00" y1="117.05" x2="155.25" y2="120.43" stroke="#6e849c" stroke-width="0.9"/>
<line x1="140.23" y1="119.00" x2="152.35" y2="126.00" stroke="#6e849c" stroke-width="0.9"/>
<line x1="142.43" y1="126.71" x2="148.98" y2="131.30" stroke="#6e849c" stroke-width="0.9"/>
<line x1="139.03" y1="131.14" x2="145.16" y2="136.28" stroke="#6e849c" stroke-width="0.9"/>
<line x1="135.25" y1="135.25" x2="140.91" y2="140.91" stroke="#6e849c" stroke-width="0.9"/>
<line x1="131.14" y1="139.03" x2="136.28" y2="145.16" stroke="#6e849c" stroke-width="0.9"/>
<line x1="126.71" y1="142.43" x2="131.30" y2="148.98" stroke="#6e849c" stroke-width="0.9"/>
<line x1="119.00" y1="140.23" x2="126.00" y2="152.35" stroke="#6e849c" stroke-width="0.9"/>
<line x1="117.05" y1="148.00" x2="120.43" y2="155.25" stroke="#6e849c" stroke-width="0.9"/>
<line x1="111.89" y1="150.14" x2="114.63" y2="157.66" stroke="#6e849c" stroke-width="0.9"/>
<line x1="106.56" y1="151.82" x2="108.63" y2="159.55" stroke="#6e849c" stroke-width="0.9"/>
<line x1="101.11" y1="153.03" x2="102.50" y2="160.91" stroke="#6e849c" stroke-width="0.9"/>
<line x1="95.58" y1="153.76" x2="96.28" y2="161.73" stroke="#6e849c" stroke-width="0.9"/>
<line x1="90.00" y1="148.00" x2="90.00" y2="162.00" stroke="#6e849c" stroke-width="0.9"/>
<line x1="84.42" y1="153.76" x2="83.72" y2="161.73" stroke="#6e849c" stroke-width="0.9"/>
<line x1="78.89" y1="153.03" x2="77.50" y2="160.91" stroke="#6e849c" stroke-width="0.9"/>
<line x1="73.44" y1="151.82" x2="71.37" y2="159.55" stroke="#6e849c" stroke-width="0.9"/>
<line x1="68.11" y1="150.14" x2="65.37" y2="157.66" stroke="#6e849c" stroke-width="0.9"/>
<line x1="62.95" y1="148.00" x2="59.57" y2="155.25" stroke="#6e849c" stroke-width="0.9"/>
<line x1="61.00" y1="140.23" x2="54.00" y2="152.35" stroke="#6e849c" stroke-width="0.9"/>
<line x1="53.29" y1="142.43" x2="48.70" y2="148.98" stroke="#6e849c" stroke-width="0.9"/>
<line x1="48.86" y1="139.03" x2="43.72" y2="145.16" stroke="#6e849c" stroke-width="0.9"/>
<line x1="44.75" y1="135.25" x2="39.09" y2="140.91" stroke="#6e849c" stroke-width="0.9"/>
<line x1="40.97" y1="131.14" x2="34.84" y2="136.28" stroke="#6e849c" stroke-width="0.9"/>
<line x1="37.57" y1="126.71" x2="31.02" y2="131.30" stroke="#6e849c" stroke-width="0.9"/>
<line x1="39.77" y1="119.00" x2="27.65" y2="126.00" stroke="#6e849c" stroke-width="0.9"/>
<line x1="32.00" y1="117.05" x2="24.75" y2="120.43" stroke="#6e849c" stroke-width="0.9"/>
<line x1="29.86" y1="111.89" x2="22.34" y2="114.63" stroke="#6e849c" stroke-width="0.9"/>
<line x1="28.18" y1="106.56" x2="20.45" y2="108.63" stroke="#6e849c" stroke-width="0.9"/>
<line x1="26.97" y1="101.11" x2="19.09" y2="102.50" stroke="#6e849c" stroke-width="0.9"/>
<line x1="26.24" y1="95.58" x2="18.27" y2="96.28" stroke="#6e849c" stroke-width="0.9"/>
<line x1="32.00" y1="90.00" x2="18.00" y2="90.00" stroke="#6e849c" stroke-width="0.9"/>
<line x1="26.24" y1="84.42" x2="18.27" y2="83.72" stroke="#6e849c" stroke-width="0.9"/>
<line x1="26.97" y1="78.89" x2="19.09" y2="77.50" stroke="#6e849c" stroke-width="0.9"/>
<line x1="28.18" y1="73.44" x2="20.45" y2="71.37" stroke="#6e849c" stroke-width="0.9"/>
<line x1="29.86" y1="68.11" x2="22.34" y2="65.37" stroke="#6e849c" stroke-width="0.9"/>
<line x1="32.00" y1="62.95" x2="24.75" y2="59.57" stroke="#6e849c" stroke-width="0.9"/>
<line x1="39.77" y1="61.00" x2="27.65" y2="54.00" stroke="#6e849c" stroke-width="0.9"/>
<line x1="37.57" y1="53.29" x2="31.02" y2="48.70" stroke="#6e849c" stroke-width="0.9"/>
<line x1="40.97" y1="48.86" x2="34.84" y2="43.72" stroke="#6e849c" stroke-width="0.9"/>
<line x1="44.75" y1="44.75" x2="39.09" y2="39.09" stroke="#6e849c" stroke-width="0.9"/>
<line x1="48.86" y1="40.97" x2="43.72" y2="34.84" stroke="#6e849c" stroke-width="0.9"/>
<line x1="53.29" y1="37.57" x2="48.70" y2="31.02" stroke="#6e849c" stroke-width="0.9"/>
<line x1="61.00" y1="39.77" x2="54.00" y2="27.65" stroke="#6e849c" stroke-width="0.9"/>
<line x1="62.95" y1="32.00" x2="59.57" y2="24.75" stroke="#6e849c" stroke-width="0.9"/>
<line x1="68.11" y1="29.86" x2="65.37" y2="22.34" stroke="#6e849c" stroke-width="0.9"/>
<line x1="73.44" y1="28.18" x2="71.37" y2="20.45" stroke="#6e849c" stroke-width="0.9"/>
<line x1="78.89" y1="26.97" x2="77.50" y2="19.09" stroke="#6e849c" stroke-width="0.9"/>
<line x1="84.42" y1="26.24" x2="83.72" y2="18.27" stroke="#6e849c" stroke-width="0.9"/>
<path d="M50 400V0H100V150H250V200H100V350H250V400ZM250 350V200H300V350Z" fill="#ebe7e4" transform="translate(63.79 45.09) rotate(-30.26) scale(0.023636 -0.023636)"/>
<path d="M150 50H50V0H300V50H200V350H300V400H50V350H150Z" fill="#ebe7e4" transform="translate(76.43 39.80) rotate(-15.13) scale(0.023636 -0.023636)"/>
<path d="M50 400V0H250V50H100V350H250V400ZM250 350V50H300V350Z" fill="#ebe7e4" transform="translate(90.00 38.00) rotate(0.00) scale(0.023636 -0.023636)"/>
<path d="M50 400V0H300V50H100V200H250V250H100V350H300V400Z" fill="#ebe7e4" transform="translate(103.57 39.80) rotate(15.13) scale(0.023636 -0.023636)"/>
<path d="M250 150V0H300V150ZM50 150V0H100V150ZM150 250V300H100V250ZM150 250V200H200V250ZM200 300V250H250V300ZM100 300V400H50V300ZM100 200V150H150V200ZM250 400V300H300V400ZM200 200V150H250V200Z" fill="#ebe7e4" transform="translate(116.21 45.09) rotate(30.26) scale(0.023636 -0.023636)"/>
<g transform="translate(90 108) scale(0.62) translate(-60 -64)">
  <defs>
    <clipPath id="pi-face-seal">
      <polygon points="60.00,16.00 101.57,40.00 60.00,64.00 18.43,40.00"/>
    </clipPath>
  </defs>
  <polygon points="18.43,40.00 60.00,64.00 60.00,112.00 18.43,88.00" fill="#1c2838" stroke="#6e849c" stroke-width="1.5" stroke-linejoin="round"/>
  <polygon points="101.57,40.00 60.00,64.00 60.00,112.00 101.57,88.00" fill="#3d536b" stroke="#6e849c" stroke-width="1.5" stroke-linejoin="round"/>
  <polygon points="60.00,16.00 101.57,40.00 60.00,64.00 18.43,40.00" fill="#2a3b50" stroke="#6e849c" stroke-width="1.5" stroke-linejoin="round"/>
  <g clip-path="url(#pi-face-seal)">
    <g transform="matrix(0.08855254 0.05112583 -0.08855254 0.05112583 60.00 0)">
      <path fill="#ebe7e4" fill-rule="evenodd" d="M165.29 165.29 H517.36 V400 H400 V517.36 H282.65 V634.72 H165.29 Z M282.65 282.65 V400 H400 V282.65 Z"/>
      <path fill="#ebe7e4" d="M517.36 400 H634.72 V634.72 H517.36 Z"/>
    </g>
  </g>
</g>
</svg>
