<svg xmlns="http://www.w3.org/2000/svg" viewBox="0 0 1440 900" width="1440" height="900">
  <defs>
    <filter id="ds" x="-10%" y="-10%" width="120%" height="125%">
      <feGaussianBlur in="SourceAlpha" stdDeviation="22"/>
      <feOffset dx="0" dy="26" result="o"/>
      <feComponentTransfer in="o" result="o2">
        <feFuncA type="linear" slope="0.45"/>
      </feComponentTransfer>
      <feMerge>
        <feMergeNode in="o2"/>
        <feMergeNode in="SourceGraphic"/>
      </feMerge>
    </filter>
  </defs>

  <rect x="0" y="0" width="1440" height="900" fill="#E2D8CC"/>

  <g filter="url(#ds)">
    <rect x="120" y="70" width="1200" height="760" rx="14" ry="14" fill="#13110f"/>
  </g>

  <!-- traffic lights -->
  <circle cx="142" cy="92" r="6" fill="#FF5F57"/>
  <circle cx="162" cy="92" r="6" fill="#FEBC2E"/>
  <circle cx="182" cy="92" r="6" fill="#28C840"/>

  <!-- sidebar -->
  <rect x="120" y="114" width="300" height="716" fill="#212730"/>
  <rect x="419" y="114" width="1" height="716" fill="#000" opacity="0.35"/>

  <!-- sidebar mark + wordmark -->
  <g transform="translate(156 114) scale(0.036 -0.036) translate(-636.5 -480.5)">
    <path d="M1295 980 1266 863H1041L919 335Q912 306 902.5 259.5Q893 213 893 194Q893 137 918.0 116.5Q943 96 1000 96Q1019 96 1054.5 102.5Q1090 109 1109 116L1094 52Q1004 16 954.0 -0.5Q904 -17 853 -17Q773 -17 733.0 24.5Q693 66 693 127Q693 149 697.5 175.5Q702 202 710 241L853 863H588Q535 600 466.5 429.5Q398 259 328 161Q259 64 195.5 22.5Q132 -19 84 -19Q27 -19 2.5 12.5Q-22 44 -22 89Q-22 128 7.0 165.0Q36 202 88 202Q115 202 149.0 191.5Q183 181 216 163Q326 292 398.0 508.0Q470 724 477 863H430Q383 863 344.5 845.5Q306 828 277 798Q250 770 232.5 730.0Q215 690 205 661H142Q146 693 150.5 715.0Q155 737 164 779Q184 859 261.0 919.5Q338 980 438 980Z" fill="#dacbc2"/>
  </g>
  <text x="186" y="120" font-family="-apple-system, BlinkMacSystemFont, 'SF Pro Text', sans-serif" font-size="18" font-weight="600" fill="#dacbc2" opacity="0.92">pidex</text>

  <rect x="142" y="170" width="256" height="56" rx="10" fill="#252f3d" opacity="0.55"/><rect x="158" y="184" width="14" height="14" rx="3" fill="#dacbc2" opacity="0.35"/><rect x="182" y="186" width="130" height="9" rx="3" fill="#dacbc2" opacity="0.78"/><rect x="182" y="203" width="70" height="7" rx="3" fill="#dacbc2" opacity="0.40"/><circle cx="384" cy="198" r="3" fill="#dacbc2" opacity="0.55"/><rect x="142" y="242" width="256" height="56" rx="10" fill="#252f3d" opacity="0.55"/><rect x="158" y="256" width="14" height="14" rx="3" fill="#dacbc2" opacity="0.35"/><rect x="182" y="258" width="150" height="9" rx="3" fill="#dacbc2" opacity="0.78"/><rect x="182" y="275" width="84" height="7" rx="3" fill="#dacbc2" opacity="0.40"/><circle cx="384" cy="270" r="3" fill="#dacbc2" opacity="0.55"/><rect x="142" y="314" width="256" height="56" rx="10" fill="#252f3d" opacity="0.55"/><rect x="158" y="328" width="14" height="14" rx="3" fill="#dacbc2" opacity="0.35"/><rect x="182" y="330" width="170" height="9" rx="3" fill="#dacbc2" opacity="0.78"/><rect x="182" y="347" width="98" height="7" rx="3" fill="#dacbc2" opacity="0.40"/><circle cx="384" cy="342" r="3" fill="#dacbc2" opacity="0.55"/><rect x="142" y="386" width="256" height="56" rx="10" fill="#252f3d" opacity="0.55"/><rect x="158" y="400" width="14" height="14" rx="3" fill="#dacbc2" opacity="0.35"/><rect x="182" y="402" width="190" height="9" rx="3" fill="#dacbc2" opacity="0.78"/><rect x="182" y="419" width="112" height="7" rx="3" fill="#dacbc2" opacity="0.40"/><circle cx="384" cy="414" r="3" fill="#dacbc2" opacity="0.55"/>

  <rect x="450" y="92" width="3" height="26" fill="#dacbc2" opacity="0.55"/><rect x="464" y="96" width="170" height="10" rx="3" fill="#dacbc2" opacity="0.78"/><rect x="464" y="110" width="110" height="7" rx="3" fill="#dacbc2" opacity="0.38"/><rect x="1180" y="95" width="110" height="20" rx="10" fill="#dacbc2" opacity="0.08"/><circle cx="1196" cy="105" r="3" fill="#b86b52" opacity="0.95"/><rect x="1206" y="101" width="74" height="7" rx="3" fill="#dacbc2" opacity="0.45"/>
  <rect x="450" y="180" width="840" height="132" rx="10" fill="#dacbc2" opacity="0.04"/><rect x="450" y="180" width="3" height="132" rx="1.5" fill="#dacbc2" opacity="0.35"/><rect x="470" y="198" width="80" height="10" rx="3" fill="#dacbc2" opacity="0.78"/><rect x="470" y="224" width="800" height="8" rx="3" fill="#dacbc2" opacity="0.30"/><rect x="470" y="240" width="700" height="8" rx="3" fill="#dacbc2" opacity="0.22"/><rect x="470" y="256" width="480" height="8" rx="3" fill="#dacbc2" opacity="0.18"/><rect x="470" y="272" width="320" height="8" rx="3" fill="#dacbc2" opacity="0.14"/><rect x="450" y="330" width="840" height="132" rx="10" fill="#dacbc2" opacity="0.04"/><rect x="450" y="330" width="3" height="132" rx="1.5" fill="#dacbc2" opacity="0.35"/><rect x="470" y="348" width="110" height="10" rx="3" fill="#dacbc2" opacity="0.78"/><rect x="470" y="374" width="800" height="8" rx="3" fill="#dacbc2" opacity="0.30"/><rect x="470" y="390" width="700" height="8" rx="3" fill="#dacbc2" opacity="0.22"/><rect x="470" y="406" width="480" height="8" rx="3" fill="#dacbc2" opacity="0.18"/><rect x="470" y="422" width="320" height="8" rx="3" fill="#dacbc2" opacity="0.14"/>
  <rect x="450" y="766" width="840" height="40" rx="20" fill="#dacbc2" opacity="0.06"/><rect x="470" y="780" width="1.5" height="12" fill="#dacbc2" opacity="0.8"/><rect x="1250" y="774" width="40" height="24" rx="12" fill="#dacbc2" opacity="0.14"/><rect x="1262" y="783" width="16" height="6" rx="3" fill="#dacbc2" opacity="0.7"/>
</svg>
